# xmcd CD database file
#
# Track frame offsets:
#	150
#	24197
#	38655
#	59682
#	76221
#	95328
#	141966
#	164502
#	187649
#	191673
#	202321
#	215369
#	240350
#	249258
#	264688
#	284123
#
# Disc length: 3992 seconds
#
# Revision: 0
# Processed by: cddbd v1.5.2PL0 Copyright (c) Steve Scherf et al.
# Submitted via: CDex 1.51
#
DISCID=e30f9610
DTITLE=Bill Frisell - Gone, Just Like a Train
DYEAR=1997
DGENRE=Jazz
TTITLE0=Blues for Los Angeles
TTITLE1=Verona
TTITLE2=Godson Song
TTITLE3=Girl Asks Boy, Pt. 1
TTITLE4=Pleased to Meet You
TTITLE5=Lookout for Hope
TTITLE6=Nature's Symphony
TTITLE7=Egg Radio
TTITLE8=Ballroom
TTITLE9=Girl Asks Boy, Pt. 2
TTITLE10=Sherlock, Jr.
TTITLE11=Gone, Just Like a Train
TTITLE12=The Wife and Kid
TTITLE13=Raccoon Coat
TTITLE14=Lonesome
TTITLE15=More Blues for Los Angeles
EXTD=YEAR: 1997
EXTT0=
EXTT1=
EXTT2=
EXTT3=
EXTT4=
EXTT5=
EXTT6=
EXTT7=
EXTT8=
EXTT9=
EXTT10=
EXTT11=
EXTT12=
EXTT13=
EXTT14=
EXTT15=
PLAYORDER=
